<svg id="Ebene_1" data-name="Ebene 1" xmlns="http://www.w3.org/2000/svg" xmlns:xlink="http://www.w3.org/1999/xlink" viewBox="0 0 280.3 76.27"><defs><style>.cls-1{fill:#004480;}.cls-2{fill-rule:evenodd;fill:url(#Unbenannter_Verlauf_97);}</style><linearGradient id="Unbenannter_Verlauf_97" x1="21.31" y1="22.93" x2="83.8" y2="66.69" gradientUnits="userSpaceOnUse"><stop offset="0.19" stop-color="#71d7fc"/><stop offset="0.29" stop-color="#67caf1"/><stop offset="0.47" stop-color="#4ea9d5"/><stop offset="0.7" stop-color="#2574a9"/><stop offset="0.89" stop-color="#004480"/></linearGradient></defs><g id="Photon_ALL_color"><g id="Photon_ALL_color-2" data-name="Photon_ALL_color"><g id="PHOTON"><path class="cls-1" d="M266.56,61h7.22V35.56a28.21,28.21,0,0,1,7.09-.79c4,0,6.7,1.31,6.7,6.17V61h7.15V40.74c0-9.19-5.05-12.8-13.72-12.8-4.85,0-10.89.73-14.44,2.1V61Z" transform="translate(-14.42 -6.68)"/><path class="cls-1" d="M253.7,44.81c0,6.17-1.38,10.11-7.81,10.11s-7.81-3.94-7.81-10.11,1.44-10,7.81-10,7.81,3.87,7.81,10Zm-7.81,16.93c10.17,0,15-6.69,15-16.93,0-10.63-4.46-16.87-15-16.87-10.11,0-15.09,6.63-15.09,16.87,0,10.7,4.52,16.93,15.09,16.93Z" transform="translate(-14.42 -6.68)"/><path class="cls-1" d="M207.63,49.47c0,9.25,5.05,12.21,12.07,12.21a21.36,21.36,0,0,0,8.08-1.45l-1.12-6.82a17,17,0,0,1-7,1.44c-2.89,0-4.79-1.31-4.79-5.31V35.43h11.68V28.6H214.85V20.07h-7.22v29.4Z" transform="translate(-14.42 -6.68)"/><path class="cls-1" d="M194.76,44.81c0,6.17-1.37,10.11-7.81,10.11s-7.81-3.94-7.81-10.11,1.45-10,7.81-10,7.81,3.87,7.81,10ZM187,61.74c10.18,0,15-6.69,15-16.93,0-10.63-4.46-16.87-15-16.87-10.1,0-15.09,6.63-15.09,16.87,0,10.7,4.53,16.93,15.09,16.93Z" transform="translate(-14.42 -6.68)"/><path class="cls-1" d="M138.06,61h7.22V35.56a27.34,27.34,0,0,1,7.09-.79c4,0,6.69,1.31,6.69,6.17V61h7.15V40.94c0-9.65-5.44-13-13.52-13a26,26,0,0,0-7.41.92V15.08h-7.22V61Z" transform="translate(-14.42 -6.68)"/><path class="cls-1" d="M104.19,74.94h7.22V60.82a15.1,15.1,0,0,0,5.45.92c9.91,0,15.55-6.36,15.55-17.39,0-10.63-5-16.41-16.27-16.41a36.81,36.81,0,0,0-12,2v45Zm20.94-30.13c0,6.7-1.77,10.11-8.6,10.11a9.76,9.76,0,0,1-5.12-1.05V35.49a15,15,0,0,1,5.06-.72c6.49,0,8.66,2.62,8.66,10Z" transform="translate(-14.42 -6.68)"/></g><path id="Corona" class="cls-2" d="M36.94,59.26c.18.2.38.4.57.59l.6.58-10.74,13c-.61-.54-1.21-1.1-1.79-1.68S24.44,70.61,23.91,70l13-10.74ZM41.43,63l-8,14.87a37,37,0,0,1-4.07-2.72L40.05,62c.45.33.91.63,1.38.92Zm-7-7c.28.46.59.92.92,1.37L22.26,68a37.32,37.32,0,0,1-2.72-4.06l14.88-8Zm10.76,8.83L40.24,80.92a38.29,38.29,0,0,1-4.51-1.87l7.92-14.91q.76.35,1.53.63ZM32.6,52.18q.28.78.63,1.53L18.32,61.64a36.16,36.16,0,0,1-1.87-4.52L32.6,52.18ZM49.22,65.82l-1.69,16.8a39.17,39.17,0,0,1-4.8-1L47.6,65.5c.53.13,1.07.23,1.62.32ZM31.55,48.15c.08.54.19,1.08.32,1.62L15.7,54.63a37.57,37.57,0,0,1-.95-4.79l16.8-1.69ZM31.3,44c0,.55,0,1.11,0,1.66L14.5,47.29a38,38,0,0,1,0-4.89L31.3,44ZM53.38,66.06,55,82.87a39.89,39.89,0,0,1-4.89,0l1.62-16.81a15.14,15.14,0,0,0,1.65,0Zm4.13-.56,4.87,16.17a39.17,39.17,0,0,1-4.8,1l-1.69-16.8c.54-.09,1.09-.19,1.62-.32ZM31.87,39.85c-.13.54-.24,1.08-.32,1.63l-16.8-1.7A37.57,37.57,0,0,1,15.7,35l16.17,4.86ZM61.46,64.14l7.92,14.91a39.46,39.46,0,0,1-4.52,1.87L59.93,64.77q.76-.28,1.53-.63Zm-28.2-28.3c-.23.5-.45,1-.64,1.53l-16.13-5a37.86,37.86,0,0,1,1.89-4.52l14.88,8ZM65.05,62,75.74,75.11a40,40,0,0,1-4.07,2.72L63.68,63c.47-.29.92-.59,1.37-.92ZM35.35,32.3c-.33.45-.64.9-.92,1.37l-14.87-8a39.37,39.37,0,0,1,2.72-4.06L35.35,32.3ZM81.2,70c-.54.61-1.09,1.2-1.67,1.78s-1.18,1.14-1.79,1.68L67,60.43l.6-.58.57-.59L81.2,70ZM27.37,16.17l10.74,13-.6.58c-.19.19-.39.39-.57.59l-13-10.74c.53-.6,1.09-1.2,1.67-1.78s1.18-1.14,1.79-1.67Zm58.2,47.76A37.32,37.32,0,0,1,82.85,68L69.77,57.31c.33-.45.64-.91.92-1.37l14.88,8ZM33.44,11.8l8,14.87c-.47.29-.93.6-1.38.92L29.37,14.52a37,37,0,0,1,4.07-2.72ZM88.66,57.12a36.16,36.16,0,0,1-1.87,4.52L71.88,53.71q.34-.75.63-1.53l16.15,4.94ZM40.28,8.69,45.2,24.85q-.78.28-1.53.63L35.76,10.56a39.46,39.46,0,0,1,4.52-1.87ZM90.36,49.84a37.57,37.57,0,0,1-1,4.79L73.24,49.77c.13-.54.24-1.08.32-1.62l16.8,1.69ZM47.53,7,49.22,23.8c-.55.09-1.09.2-1.62.32L42.73,8A39.14,39.14,0,0,1,47.53,7ZM90.61,42.37a36.12,36.12,0,0,1,0,4.88l-16.8-1.61c0-.55,0-1.1,0-1.66l16.8-1.61ZM55,6.75,53.38,23.56q-.83,0-1.65,0L50.11,6.75a39.89,39.89,0,0,1,4.89,0ZM89.41,35a37.57,37.57,0,0,1,1,4.79l-16.8,1.7c-.08-.55-.19-1.09-.32-1.63L89.41,35Zm-27-27L57.51,24.12c-.53-.12-1.08-.23-1.62-.32L57.58,7a39.14,39.14,0,0,1,4.8.94Zm7,2.62L61.46,25.49c-.51-.24-1-.45-1.53-.64L64.86,8.7a39.46,39.46,0,0,1,4.52,1.87ZM86.78,28a37.74,37.74,0,0,1,1.87,4.52l-16.14,5c-.19-.51-.41-1-.64-1.53L86.78,28ZM75.71,14.5,65,27.58c-.45-.32-.91-.63-1.38-.92l8-14.88a37,37,0,0,1,4.07,2.72Zm7.1,7.08a38.2,38.2,0,0,1,2.72,4.05l-14.86,8c-.29-.47-.59-.93-.92-1.38l13.06-10.7Zm-5.07-5.41c.61.53,1.2,1.09,1.79,1.67S80.66,19,81.2,19.62l-13,10.75q-.28-.32-.57-.6l-.6-.58,10.74-13Z" transform="translate(-14.42 -6.68)"/></g></g></svg>